<svg width="35" height="12" viewBox="0 0 35 12" fill="none" xmlns="http://www.w3.org/2000/svg">
<path d="M25.3134 1.79437L24.6688 3.19921H25.9615L25.3134 1.79437ZM17.8753 2.66492C17.9968 2.60791 18.0683 2.4839 18.0683 2.3299C18.0683 2.17899 17.9932 2.0697 17.8717 2.01834C17.761 1.9614 17.5908 1.95483 17.4275 1.95483H16.2743V2.73757H17.4121C17.5943 2.73761 17.7465 2.73521 17.8753 2.66492ZM3.09844 1.79437L2.46114 3.19921H3.73958L3.09844 1.79437ZM32.77 10.7942H30.9614V10.0383H32.7627C32.9412 10.0383 33.0663 10.0173 33.1416 9.95098C33.2128 9.89193 33.253 9.80845 33.2523 9.72117C33.2523 9.61845 33.207 9.5369 33.1379 9.48811C33.07 9.4343 32.971 9.4098 32.8079 9.4098C31.9285 9.38294 30.8315 9.43422 30.8315 8.31882C30.8315 7.80763 31.1924 7.2695 32.1752 7.2695H34.0407V6.56818H32.3075C31.7845 6.56818 31.4044 6.68084 31.1354 6.85609V6.56818H28.5718C28.1619 6.56818 27.6807 6.65955 27.4531 6.85609V6.56818H22.8749V6.85609C22.5106 6.61966 21.8957 6.56818 21.6121 6.56818H18.5923V6.85609C18.3042 6.60503 17.663 6.56818 17.2725 6.56818H13.8929L13.1196 7.32094L12.3953 6.56818H7.3468V11.4868H12.3L13.0968 10.722L13.8475 11.4868L16.9006 11.4893V10.3322H17.2009C17.606 10.338 18.0837 10.3233 18.5054 10.1594V11.4867H21.0237V10.2047H21.1452C21.3002 10.2047 21.3155 10.2105 21.3155 10.3498V11.4864H28.966C29.4517 11.4864 29.9594 11.3747 30.2405 11.1716V11.4864H32.6673C33.1722 11.4864 33.6654 11.4227 34.0406 11.2598V10.3435C33.8132 10.6427 33.3697 10.7944 32.7699 10.7944L32.77 10.7942ZM17.241 9.63276H16.0724V10.815H14.2522L13.0989 9.64824L11.9006 10.815H8.19091V7.29026H11.9576L13.1098 8.44568L14.301 7.29026H17.2935C18.0368 7.29026 18.8718 7.47538 18.8718 8.45149C18.8718 9.43065 18.0596 9.63276 17.241 9.63276ZM22.8601 9.47295C22.9924 9.64499 23.0115 9.80561 23.0153 10.1163V10.8151H22.075V10.3741C22.075 10.1621 22.0977 9.84807 21.9236 9.68416C21.7869 9.55795 21.5783 9.5278 21.2365 9.5278H20.2357V10.8151H19.2947V7.2903H21.4567C21.931 7.2903 22.2763 7.30927 22.5836 7.45661C22.8792 7.61723 23.0652 7.83726 23.0652 8.23936C23.0651 8.80191 22.648 9.0889 22.4014 9.1771C22.6098 9.24626 22.7801 9.37027 22.8601 9.47295ZM26.7287 8.01924H24.5356V8.66002H26.6751V9.37921H24.5356V10.0805L26.7287 10.0837V10.815H23.603V7.29026H26.7287V8.01924ZM29.1352 10.815H27.3112V10.0592H29.1279C29.3056 10.0592 29.4316 10.038 29.5105 9.97183C29.5749 9.91735 29.6212 9.83808 29.6212 9.7421C29.6212 9.6393 29.571 9.55775 29.5069 9.50883C29.4352 9.45511 29.3363 9.43077 29.1733 9.43077C28.2975 9.40375 27.2007 9.45503 27.2007 8.33971C27.2007 7.82844 27.5579 7.2903 28.5397 7.2903H30.4173V8.04041H28.6992C28.5289 8.04041 28.4182 8.04627 28.3241 8.10424C28.2214 8.16133 28.1833 8.24597 28.1833 8.35771C28.1833 8.49066 28.2705 8.58119 28.3882 8.62028C28.4871 8.6512 28.5931 8.66022 28.7527 8.66022L29.2569 8.67261C29.7651 8.68355 30.1142 8.76282 30.3264 8.95599C30.5086 9.12566 30.6065 9.34 30.6065 9.70273C30.6064 10.461 30.0797 10.815 29.1352 10.815ZM21.8717 8.0761C21.7586 8.01563 21.5916 8.01243 21.4249 8.01243H20.2717V8.80403H21.4095C21.5917 8.80403 21.7466 8.79822 21.8717 8.73138C21.9931 8.66539 22.0658 8.54383 22.0658 8.39307C22.0658 8.24232 21.9931 8.13319 21.8717 8.0761ZM32.3356 8.01235C32.1652 8.01235 32.0519 8.01816 31.9566 8.07602C31.8578 8.13319 31.8198 8.21783 31.8198 8.32965C31.8198 8.46252 31.9032 8.55305 32.0246 8.59222C32.1235 8.62313 32.2294 8.63215 32.3854 8.63215L32.8931 8.6443C33.4052 8.65573 33.7473 8.73499 33.9557 8.92816C33.9937 8.95494 34.0165 8.9851 34.0426 9.01532V8.01243H32.3356L32.3356 8.01235ZM17.2734 8.01235H16.0523V8.91008H17.2626C17.6224 8.91008 17.8461 8.74946 17.8463 8.44455C17.8461 8.13632 17.6115 8.01235 17.2734 8.01235ZM9.12368 8.01235V8.6532H11.1796V9.3724H9.12368V10.0736H11.4262L12.496 9.03958L11.4716 8.01235H9.12368ZM15.1361 10.4773V7.65139L13.6983 9.04159L15.1361 10.4773ZM9.20227 4.81806V5.4254H17.0266L17.0229 4.14056H17.1743C17.2804 4.14389 17.3112 4.15267 17.3112 4.31012V5.42544H21.358V5.1263C21.6844 5.28363 22.1921 5.42544 22.8601 5.42544H24.5626L24.9269 4.64273H25.7347L26.091 5.42544H29.3717V4.68194L29.8684 5.4254H32.4975V0.510742H29.8958V1.09117L29.5314 0.510742H26.8617V1.09117L26.5271 0.510742H22.9208C22.3171 0.510742 21.7866 0.586519 21.358 0.797731V0.510742H18.8693V0.797731C18.5965 0.580024 18.2248 0.510742 17.8117 0.510742H8.71971L8.10971 1.78018L7.48322 0.510742H4.61956V1.09117L4.3049 0.510742H1.86267L0.728558 2.84755V4.71674L2.40558 1.19277H3.79707L5.38977 4.52923V1.19277H6.91837L8.14397 3.58334L9.26992 1.19277H10.8292V4.71674H9.86925L9.86574 1.95683L8.5077 4.71674H7.68542L6.32391 1.95439V4.71674H4.41899L4.05914 3.93071H2.1092L1.74564 4.71674H0.728516V5.42568H2.32874L2.68952 4.64293H3.49736L3.8572 5.42568H7.00558V4.8272L7.28658 5.42816H8.92097L9.20201 4.81818L9.20227 4.81806ZM21.5317 1.60353C21.8343 1.32227 22.3086 1.19257 22.9539 1.19257H23.8606V1.94765H22.9729C22.6313 1.94765 22.4382 1.99336 22.2524 2.15646C22.0926 2.3048 21.9831 2.5853 21.9831 2.95464C21.9831 3.3322 22.0666 3.60439 22.2406 3.78221C22.3848 3.92165 22.6469 3.96395 22.8933 3.96395H23.3141L24.6339 1.19269H26.0371L27.6228 4.52582V1.19273H29.0487L30.6949 3.64697V1.19273H31.6542V4.71658H30.3271L28.5519 2.0717V4.71658H26.6446L26.2802 3.93055H24.3347L23.9811 4.71658H22.8852C22.43 4.71658 21.8537 4.62605 21.5273 4.3268C21.1981 4.02762 21.027 3.62231 21.027 2.98154C21.0268 2.45884 21.129 1.98109 21.5317 1.60353ZM19.6054 1.19261H20.561V4.71658H19.6054V1.19261ZM15.2971 1.19261H17.4511C17.9296 1.19261 18.2825 1.20404 18.5853 1.36141C18.8815 1.51881 19.0591 1.74863 19.0591 2.14162C19.0591 2.70353 18.6421 2.99377 18.3993 3.08097C18.6042 3.15114 18.7793 3.27506 18.8627 3.3777C18.9949 3.55299 19.0177 3.70956 19.0177 4.02425V4.71655H18.0731L18.0696 4.27215C18.0696 4.06005 18.0922 3.7551 17.9218 3.58567C17.785 3.46178 17.5763 3.4348 17.2391 3.4348H16.2338V4.71658H15.2973L15.2971 1.19261ZM11.5217 1.19261H14.6503V1.92644H12.4584V2.56164H14.5977V3.28401H12.4584V3.98777H14.6503V4.71655H11.5217V1.19261Z" fill="#2557D6"/>
</svg>
