<svg width="29" height="6" viewBox="0 0 29 6" fill="none" xmlns="http://www.w3.org/2000/svg">
<path d="M17.943 2.98537C17.9456 2.39547 17.7168 1.80471 17.2563 1.35953C16.7948 0.913432 16.1822 0.692434 15.5706 0.695985C15.5677 0.695985 15.5649 0.695801 15.5618 0.695801C14.234 0.695801 13.1807 1.71374 13.1807 2.99773C13.1807 4.26905 14.2469 5.29948 15.5618 5.29948C16.8901 5.29948 17.9433 4.28136 17.9433 2.99773C17.9433 2.99351 17.943 2.98953 17.943 2.98537Z" fill="#F26E21"/>
<path d="M12.7391 3.97209C12.3832 4.31651 12.0547 4.45107 11.7008 4.45835C10.8389 4.45088 10.2051 3.8338 10.2051 2.95403C10.2051 2.51118 10.3786 2.14822 10.6534 1.83814C10.9111 1.60166 11.243 1.44886 11.6248 1.44886C12.0369 1.44886 12.3576 1.58164 12.7237 1.93579V0.917665C12.3576 0.740682 12.0368 0.6521 11.6248 0.6521C11.0427 0.69232 10.4938 0.919685 10.0728 1.27671C9.95144 1.38225 9.83517 1.49875 9.73656 1.63208C9.42904 2.01739 9.24316 2.4892 9.24316 2.99848C9.24316 4.28204 10.2968 5.25591 11.6247 5.25591C11.6312 5.25591 11.6376 5.25535 11.6439 5.25529C11.6528 5.25541 11.6616 5.25591 11.6705 5.25591C12.0367 5.25591 12.3576 5.16757 12.7697 4.99046L12.7391 3.97209C12.7236 3.98703 12.7544 4.00093 12.7391 4.01507V3.97209Z" fill="#2B2B2B"/>
<path d="M20.9501 1.28646L19.913 3.75124L18.7223 0.829346H17.7607L19.6382 5.30043H20.1419L22.1111 0.829346H21.1496L20.9501 1.28646Z" fill="#2B2B2B"/>
<path d="M22.4775 2.77719V5.16783H24.9505H24.9961V4.45929H24.2177H23.3934V3.66265V3.26437H24.9505V2.51157H23.3934V1.58203H24.9961V0.829346H22.4775V2.77719Z" fill="#2B2B2B"/>
<path d="M1.77858 0.830322H0.496094V5.16881H1.77851C2.46532 5.16881 2.96898 4.99158 3.38113 4.68169C3.88478 4.28328 4.20548 3.66369 4.20548 2.99978C4.20555 1.71566 3.2437 0.830322 1.77858 0.830322ZM2.83174 4.10636C2.55696 4.3276 2.1906 4.46026 1.64103 4.46026H1.36624V1.58294H1.59517C2.14475 1.58294 2.51111 1.67146 2.78596 1.93697C3.10647 2.20241 3.28974 2.60106 3.28974 2.9996C3.33553 3.398 3.15238 3.84049 2.83174 4.10636Z" fill="#2B2B2B"/>
<path d="M5.48825 0.829102H4.61816V5.16746H5.48825V0.829102Z" fill="#2B2B2B"/>
<path d="M7.68642 2.51212C7.13697 2.33508 6.99942 2.20217 6.99942 1.98093C6.99942 1.71531 7.27421 1.494 7.64057 1.494C7.91536 1.494 8.14429 1.58258 8.37329 1.84821L8.83135 1.27276C8.46486 0.962749 8.00712 0.785889 7.50333 0.785889C6.72464 0.785889 6.08349 1.31714 6.08349 2.02519C6.08349 2.64509 6.35853 2.91066 7.1827 3.22054C7.54906 3.35314 7.68648 3.39758 7.77825 3.48611C7.96108 3.57451 8.05284 3.75173 8.05284 3.92859C8.05284 4.2828 7.77825 4.54849 7.36585 4.54849C6.95332 4.54849 6.58728 4.32719 6.40406 3.97298L5.85449 4.50423C6.26683 5.07968 6.77055 5.34525 7.4117 5.34525C8.3275 5.34525 8.96833 4.7698 8.96833 3.92859C8.96846 3.17622 8.69393 2.86633 7.68642 2.51212Z" fill="#2B2B2B"/>
<path d="M27.4695 3.35258C28.1562 3.21998 28.5227 2.77713 28.5227 2.11328C28.5227 1.31658 27.9273 0.829346 26.9199 0.829346H25.5918V5.16783H26.4619V3.44117H26.5994L27.8356 5.16783H28.889L27.4695 3.35258ZM26.7365 2.82133H26.4619V1.49344H26.7365C27.2861 1.49344 27.6068 1.71469 27.6068 2.15766C27.6068 2.60015 27.2862 2.82133 26.7365 2.82133Z" fill="#2B2B2B"/>
</svg>
