<svg width="28" height="18" viewBox="0 0 28 18" fill="none" xmlns="http://www.w3.org/2000/svg">
<path d="M17.6452 15.4758H10.3584V2.52905H17.6452V15.4758Z" fill="#6C6BBD"/>
<path d="M10.8247 9.00001C10.8247 6.37369 12.0685 4.03424 14.0055 2.5266C12.589 1.42414 10.8015 0.766125 8.85871 0.766125C4.25947 0.766125 0.53125 4.4525 0.53125 9.00001C0.53125 13.5475 4.25947 17.2339 8.85871 17.2339C10.8015 17.2339 12.589 16.5759 14.0055 15.4734C12.0685 13.9658 10.8247 11.6263 10.8247 9.00001Z" fill="#EB001B"/>
<path d="M27.4718 9.00001C27.4718 13.5475 23.7436 17.2339 19.1444 17.2339C17.2016 17.2339 15.414 16.5759 13.9971 15.4734C15.9345 13.9658 17.1783 11.6263 17.1783 9.00001C17.1783 6.37369 15.9345 4.03424 13.9971 2.5266C15.414 1.42414 17.2016 0.766125 19.1444 0.766125C23.7436 0.766125 27.4718 4.4525 27.4718 9.00001Z" fill="#0099DF"/>
</svg>
