<svg width="30" height="8" viewBox="0 0 30 8" fill="none" xmlns="http://www.w3.org/2000/svg">
<path d="M5.60292 0.924123C5.24704 0.687627 4.78265 0.569092 4.20975 0.569092H1.99178C1.81615 0.569092 1.71912 0.653999 1.70069 0.823651L0.799703 6.29084C0.790339 6.34454 0.804237 6.39365 0.841269 6.43829C0.87809 6.48302 0.924402 6.50526 0.979866 6.50526H2.03339C2.21817 6.50526 2.31973 6.42056 2.33838 6.2507L2.58786 4.77676C2.59697 4.70532 2.62947 4.64724 2.68493 4.60252C2.74035 4.55787 2.80967 4.52867 2.89285 4.51532C2.97602 4.50205 3.05445 4.49533 3.12852 4.49533C3.20237 4.49533 3.29012 4.49987 3.39194 4.50876C3.49351 4.51765 3.55825 4.52203 3.586 4.52203C4.38072 4.52203 5.00451 4.30556 5.45742 3.87214C5.91011 3.43896 6.13672 2.83825 6.13672 2.06978C6.13672 1.54272 5.95863 1.16087 5.60292 0.924V0.924123ZM4.45936 2.56575C4.41301 2.87848 4.29301 3.08384 4.09895 3.18214C3.90485 3.28057 3.62761 3.32956 3.26724 3.32956L2.80976 3.34291L3.04547 1.90906C3.06386 1.81088 3.1239 1.76173 3.22563 1.76173H3.4891C3.85858 1.76173 4.12675 1.81322 4.2931 1.91578C4.45936 2.01859 4.51483 2.2353 4.45936 2.56575Z" fill="#003087"/>
<path d="M29.0086 0.569092H27.9829C27.881 0.569092 27.821 0.618243 27.8027 0.716585L26.9016 6.29109L26.8877 6.31787C26.8877 6.36277 26.9062 6.40499 26.9432 6.44522C26.98 6.48536 27.0264 6.50547 27.0818 6.50547H27.9968C28.1721 6.50547 28.2692 6.42076 28.288 6.25091L29.189 0.7702V0.756889C29.1889 0.631759 29.1287 0.569256 29.0086 0.569256V0.569092Z" fill="#009CDE"/>
<path d="M16.6159 2.72787C16.6159 2.68331 16.5973 2.6408 16.5606 2.6007C16.5235 2.56052 16.4819 2.54028 16.4358 2.54028H15.3684C15.2666 2.54028 15.1834 2.58517 15.1188 2.67426L13.6495 4.76476L13.0395 2.75474C12.9931 2.61192 12.8916 2.54028 12.7346 2.54028H11.6947C11.6484 2.54028 11.6068 2.56044 11.5701 2.6007C11.533 2.6408 11.5146 2.68339 11.5146 2.72787C11.5146 2.74586 11.6048 3.0093 11.7849 3.5185C11.9651 4.02787 12.1592 4.57729 12.3671 5.16693C12.5751 5.75645 12.6836 6.0693 12.6929 6.10473C11.935 7.10543 11.5563 7.64142 11.5563 7.71277C11.5563 7.82901 11.6162 7.88701 11.7365 7.88701H12.8038C12.9055 7.88701 12.9886 7.84245 13.0534 7.75308L16.5884 2.82163C16.6067 2.80394 16.6159 2.77281 16.6159 2.72783V2.72787Z" fill="#003087"/>
<path d="M26.556 2.53838H25.5024C25.3729 2.53838 25.2946 2.68583 25.2669 2.98069C25.0263 2.62345 24.5876 2.44458 23.9498 2.44458C23.2845 2.44458 22.7184 2.68583 22.2518 3.16824C21.785 3.65066 21.5518 4.21811 21.5518 4.87017C21.5518 5.39736 21.7112 5.81719 22.0299 6.12975C22.3488 6.44263 22.7761 6.59877 23.3123 6.59877C23.5803 6.59877 23.8529 6.54507 24.1301 6.43796C24.4073 6.33078 24.6243 6.18791 24.7817 6.00916C24.7817 6.01813 24.7723 6.05819 24.754 6.12963C24.7353 6.20122 24.7262 6.255 24.7262 6.29043C24.7262 6.43354 24.7861 6.50481 24.9065 6.50481H25.863C26.0384 6.50481 26.1402 6.42011 26.1678 6.25025L26.7363 2.75276C26.7454 2.6991 26.7316 2.65007 26.6946 2.60534C26.6575 2.56078 26.6114 2.53838 26.556 2.53838ZM24.747 5.17835C24.5113 5.4017 24.2271 5.51331 23.8944 5.51331C23.6263 5.51331 23.4093 5.44196 23.2429 5.29893C23.0765 5.15632 22.9933 4.95975 22.9933 4.70933C22.9933 4.37903 23.1088 4.09961 23.34 3.87184C23.5707 3.64402 23.8575 3.53016 24.1994 3.53016C24.4579 3.53016 24.6728 3.60384 24.844 3.75117C25.0148 3.89863 25.1005 4.10187 25.1005 4.36101C25.1004 4.68258 24.9826 4.95512 24.747 5.17835Z" fill="#009CDE"/>
<path d="M10.8081 2.53838H9.75452C9.62495 2.53838 9.54656 2.68583 9.51881 2.98069C9.26928 2.62345 8.83028 2.44458 8.20187 2.44458C7.53648 2.44458 6.97036 2.68583 6.50372 3.16824C6.03696 3.65066 5.80371 4.21811 5.80371 4.87017C5.80371 5.39736 5.96315 5.81719 6.282 6.12975C6.60084 6.44263 7.02815 6.59877 7.56423 6.59877C7.82286 6.59877 8.09103 6.54507 8.36822 6.43796C8.64545 6.33078 8.86727 6.18791 9.03362 6.00916C8.99654 6.11627 8.97815 6.21011 8.97815 6.29043C8.97815 6.43354 9.03819 6.50481 9.15836 6.50481H10.1148C10.2903 6.50481 10.3921 6.42011 10.4198 6.25025L10.9882 2.75276C10.9973 2.6991 10.9834 2.65007 10.9466 2.60534C10.9096 2.56078 10.8635 2.53838 10.8081 2.53838ZM8.99904 5.18499C8.76333 5.40412 8.4744 5.51331 8.13268 5.51331C7.86451 5.51331 7.64965 5.44196 7.48805 5.29893C7.32623 5.15632 7.24543 4.95975 7.24543 4.70933C7.24543 4.37903 7.36089 4.09961 7.59203 3.87184C7.82291 3.64402 8.10942 3.53012 8.45148 3.53012C8.71011 3.53012 8.92498 3.60384 9.09611 3.75117C9.26695 3.89863 9.35254 4.10187 9.35254 4.36101C9.3525 4.69155 9.23471 4.96635 8.99904 5.18499Z" fill="#003087"/>
<path d="M21.3501 0.924123C20.9942 0.687627 20.53 0.569092 19.9569 0.569092H17.7528C17.5679 0.569092 17.4662 0.653999 17.4478 0.823651L16.5468 6.29084C16.5374 6.34454 16.5513 6.39365 16.5884 6.43829C16.625 6.48302 16.6715 6.50526 16.7269 6.50526H17.8636C17.9745 6.50526 18.0484 6.44726 18.0854 6.3311L18.335 4.77676C18.3442 4.70532 18.3765 4.64724 18.432 4.60252C18.4875 4.55787 18.5567 4.52867 18.64 4.51532C18.7231 4.50205 18.8015 4.49533 18.8756 4.49533C18.9495 4.49533 19.0372 4.49987 19.139 4.50876C19.2406 4.51765 19.3055 4.52203 19.333 4.52203C20.1279 4.52203 20.7516 4.30556 21.2045 3.87214C21.6573 3.43896 21.8837 2.83825 21.8837 2.06978C21.8838 1.54272 21.7058 1.16082 21.3501 0.924V0.924123ZM19.9292 3.12849C19.7259 3.26247 19.4209 3.32943 19.0143 3.32943L18.5707 3.34287L18.8063 1.90898C18.8247 1.81084 18.8847 1.76161 18.9865 1.76161H19.2359C19.4393 1.76161 19.601 1.77058 19.7213 1.7884C19.8412 1.80634 19.9569 1.86208 20.0678 1.95584C20.1788 2.04967 20.2342 2.18598 20.2342 2.36456C20.2342 2.73991 20.1324 2.99439 19.9292 3.12849Z" fill="#009CDE"/>
</svg>
