<svg width="29" height="10" viewBox="0 0 29 10" fill="none" xmlns="http://www.w3.org/2000/svg">
<path d="M26.7006 0.904297H24.9554C24.4278 0.904297 24.0219 1.0648 23.7784 1.58644L20.4502 9.09002H22.8043C22.8043 9.09002 23.2101 8.08687 23.2913 7.84612C23.5348 7.84612 25.8483 7.84612 26.173 7.84612C26.2542 8.127 26.4571 9.0499 26.4571 9.0499H28.5677L26.7006 0.904297ZM23.9407 6.16082C24.1436 5.67931 24.8336 3.87363 24.8336 3.87363C24.8336 3.91376 25.0366 3.39212 25.1177 3.11123L25.2801 3.8335C25.2801 3.8335 25.7265 5.79968 25.8077 6.20094H23.9407V6.16082Z" fill="#3362AB"/>
<path d="M20.6126 6.40355C20.6126 8.08884 19.0702 9.21237 16.6756 9.21237C15.6609 9.21237 14.6868 9.01174 14.1592 8.77099L14.4839 6.92518L14.768 7.04556C15.4986 7.36657 15.9856 7.48695 16.8785 7.48695C17.5279 7.48695 18.2179 7.24619 18.2179 6.68443C18.2179 6.32329 17.9338 6.08254 17.0409 5.68127C16.1885 5.28001 15.0521 4.638 15.0521 3.47434C15.0521 1.86929 16.635 0.785889 18.8673 0.785889C19.7196 0.785889 20.4502 0.946393 20.8967 1.14702L20.572 2.91257L20.4096 2.75207C20.0038 2.59156 19.4761 2.43106 18.705 2.43106C17.8526 2.47119 17.4468 2.83232 17.4468 3.15333C17.4468 3.51446 17.9338 3.79535 18.705 4.15648C20.0038 4.75837 20.6126 5.44052 20.6126 6.40355Z" fill="#3362AB"/>
<path d="M0.805664 0.985944L0.846251 0.825439H4.33676C4.82381 0.825439 5.1891 0.985944 5.31086 1.50758L6.08202 5.11894C5.31086 3.19288 3.52502 1.62796 0.805664 0.985944Z" fill="#F9B50B"/>
<path d="M10.9932 0.905849L7.46211 9.05145H5.06745L3.03809 2.23001C4.49923 3.15291 5.71685 4.59745 6.16331 5.60061L6.40684 6.44325L8.59855 0.865723H10.9932V0.905849Z" fill="#3362AB"/>
<path d="M11.9264 0.865723H14.1587L12.7382 9.05145H10.5059L11.9264 0.865723Z" fill="#3362AB"/>
</svg>
